<?xml version="1.0" standalone="no"?><!DOCTYPE svg PUBLIC "-//W3C//DTD SVG 1.1//EN" "http://www.w3.org/Graphics/SVG/1.1/DTD/svg11.dtd"><svg t="1740909416137" class="icon" viewBox="0 0 1024 1024" version="1.1" xmlns="http://www.w3.org/2000/svg" p-id="837" xmlns:xlink="http://www.w3.org/1999/xlink" width="200" height="200"><path d="M783.168 541.376a40 40 0 0 1-38.72 33.344l-511.104 33.6a22.592 22.592 0 0 0-7.808 1.92l-9.024 3.776-39.936-235.2-19.2-110.912 10.24 1.152a23.104 23.104 0 0 0 2.816 0.192l632.384-1.28c8.384 0 15.616 3.392 21.312 9.728a47.104 47.104 0 0 1 9.984 36.096v0.448l-50.88 227.072v0.064z" fill="#D7F1FF" p-id="838"></path><path d="M296.32 876.544m-70.208 0a70.208 70.208 0 1 0 140.416 0 70.208 70.208 0 1 0-140.416 0Z" fill="#3AA4FF" p-id="839"></path><path d="M719.04 876.544m-70.208 0a70.208 70.208 0 1 0 140.416 0 70.208 70.208 0 1 0-140.416 0Z" fill="#3AA4FF" p-id="840"></path><path d="M849.216 251.456a74.432 74.432 0 0 0-56.32-25.472l-614.144 1.216a23.168 23.168 0 0 0-10.496 2.432l-9.024 4.48-4.672-27.136v-0.32a85.952 85.952 0 0 0-84.032-74.752H30.592a23.872 23.872 0 0 0 0 47.68h39.936c17.536 0 34.432 15.616 36.864 34.24l30.208 174.72 53.12 297.344 0.064 0.256c5.12 41.92 41.472 74.752 82.944 74.752h509.184a23.872 23.872 0 1 0 0-47.744H273.728c-17.024 0-33.344-15.104-35.648-33.216l-7.488-28.864 10.048 0.704h1.024c0.576 0 1.152 0 1.856-0.192l494.528-32.512h0.256c40.768 0 77.888-32.832 82.688-73.024v-0.32l49.536-220.544v-0.128c3.136-27.84-4.544-54.72-21.312-73.6z m-75.328 287.808a38.912 38.912 0 0 1-37.504 32.384l-496.512 32.448a22.656 22.656 0 0 0-7.552 1.92l-8.704 3.648-38.784-228.352-18.688-107.712 9.92 1.152 2.688 0.128 614.144-1.216a26.88 26.88 0 0 1 20.672 9.408 46.592 46.592 0 0 1 9.792 35.072l-0.128 0.384-49.344 220.544v0.192z" fill="#3AA4FF" p-id="841"></path><path d="M919.296 374.72m-28.032 0a28.032 28.032 0 1 0 56.064 0 28.032 28.032 0 1 0-56.064 0Z" fill="#3AA4FF" p-id="842"></path><path d="M898.432 293.952l17.152-76.032-12.224-56.576 51.072 19.456 62.912-25.216-24.064 60.8 24.064 60.928-55.936-20.48z" fill="#3AA4FF" p-id="843"></path></svg>