<?xml version="1.0" standalone="no"?><!DOCTYPE svg PUBLIC "-//W3C//DTD SVG 1.1//EN" "http://www.w3.org/Graphics/SVG/1.1/DTD/svg11.dtd"><svg t="1740927258452" class="icon" viewBox="0 0 1315 1024" version="1.1" xmlns="http://www.w3.org/2000/svg" p-id="5941" xmlns:xlink="http://www.w3.org/1999/xlink" width="256.8359375" height="200"><path d="M903.19605 392.196H29.78605A29.73 29.73 0 0 1 0.00005 362.411V253.192a29.73 29.73 0 0 1 29.785-29.785h873.411a29.73 29.73 0 0 1 29.786 29.785v109.07a29.897 29.897 0 0 1-29.786 29.897zM51.83405 340.212h829.463V275.13H51.83405z m0 0" p-id="5942" fill="#1296db"></path><path d="M823.46405 923.657H113.16105a30.981 30.981 0 0 1-30.943-30.962V370.726a30.981 30.981 0 0 1 30.962-30.944h710.284a30.981 30.981 0 0 1 30.963 30.944v521.838a31.093 31.093 0 0 1-30.963 31.093z m-689.506-51.834h668.634V391.598H134.03305z m0 0" p-id="5943" fill="#1296db"></path><path d="M617.60305 633.392H333.58005a28.328 28.328 0 0 1-28.31-28.309V506.05a28.346 28.346 0 0 1 28.31-28.328h284.024a28.365 28.365 0 0 1 28.327 28.328v99.034a28.458 28.458 0 0 1-28.327 28.31z m-260.33-51.815h236.674v-51.704H357.27205zM191.84605 268.533l-45.836-24.384L250.39005 47.33a89.075 89.075 0 0 1 120.317-36.94l336.83 178.786a90.159 90.159 0 0 1 36.793 36.792l-45.836 24.292a36.867 36.867 0 0 0-15.341-15.323L346.47305 56.244a36.699 36.699 0 0 0-28.329-2.634 37.222 37.222 0 0 0-21.9 17.957z m0 0" p-id="5944" fill="#1296db"></path><path d="M739.08005 241.813l-20.723-85.562a37.203 37.203 0 0 0-44.846-27.3l-119.14 28.907-12.128-50.452 119.234-28.832a89.15 89.15 0 0 1 107.462 65.4l20.741 85.562zM428.37105 91.859l45.855 24.292L390.70005 273.39l-45.836-24.384z m-101.614 0.3l40.306 21.47-21.377 40.286-40.305-21.451z m-41.463 77.975l40.286 21.451-21.45 40.306-40.306-21.47z m0 0" p-id="5945" fill="#1296db"></path></svg>